<?xml version="1.0" encoding="UTF-8"?>
<svg xmlns="http://www.w3.org/2000/svg" xmlns:xlink="http://www.w3.org/1999/xlink" width="23px" height="14px" viewBox="0 0 22 14" version="1.1">
<g id="surface1">
<path style=" stroke:none;fill-rule:nonzero;fill:rgb(100%,100%,100%);fill-opacity:1;" d="M 20.113281 2.371094 C 20.324219 2.585938 20.429688 2.800781 20.429688 3.015625 C 20.429688 3.085938 20.429688 3.125 20.429688 3.125 C 20.359375 3.480469 20.21875 3.734375 20.007812 3.875 C 19.800781 4.019531 19.625 4.09375 19.484375 4.09375 C 19.414062 4.09375 19.347656 4.09375 19.277344 4.09375 C 19.066406 4.019531 18.890625 3.914062 18.753906 3.769531 C 17.84375 2.835938 16.761719 2.371094 15.503906 2.371094 C 14.316406 2.371094 13.304688 2.800781 12.464844 3.660156 C 11.628906 4.453125 11.210938 5.457031 11.210938 6.675781 C 11.210938 7.898438 11.628906 8.9375 12.464844 9.800781 C 13.304688 10.660156 14.316406 11.09375 15.503906 11.09375 C 16.621094 11.09375 17.566406 10.734375 18.332031 10.015625 C 19.101562 9.371094 19.554688 8.617188 19.695312 7.753906 L 15.714844 7.753906 C 15.574219 7.753906 15.46875 7.71875 15.398438 7.644531 C 15.261719 7.574219 15.15625 7.503906 15.085938 7.429688 C 14.945312 7.359375 14.875 7.25 14.875 7.109375 C 14.804688 6.964844 14.769531 6.820312 14.769531 6.675781 C 14.769531 6.535156 14.804688 6.425781 14.875 6.355469 C 14.875 6.210938 14.945312 6.101562 15.085938 6.03125 C 15.15625 5.886719 15.261719 5.816406 15.398438 5.816406 C 15.46875 5.742188 15.574219 5.707031 15.714844 5.707031 L 20.847656 5.707031 C 20.988281 5.707031 21.09375 5.742188 21.160156 5.816406 C 21.300781 5.816406 21.40625 5.886719 21.476562 6.03125 C 21.6875 6.175781 21.789062 6.390625 21.789062 6.675781 C 21.789062 8.472656 21.195312 9.980469 20.007812 11.199219 C 18.753906 12.492188 17.25 13.136719 15.503906 13.136719 C 13.828125 13.136719 12.363281 12.492188 11.105469 11.199219 C 9.847656 9.980469 9.21875 8.472656 9.21875 6.675781 C 9.21875 4.953125 9.847656 3.445312 11.105469 2.152344 C 12.363281 0.933594 13.828125 0.324219 15.503906 0.324219 C 17.390625 0.324219 18.925781 1.003906 20.113281 2.371094 Z M 20.113281 2.371094 "/>
<path style=" stroke:none;fill-rule:nonzero;fill:rgb(100%,100%,100%);fill-opacity:1;" d="M 9.324219 8.9375 C 9.324219 11.414062 7.332031 13.136719 4.921875 13.136719 C 3.144531 13.136719 1.675781 12.277344 0.839844 10.984375 C 0.734375 10.875 0.734375 10.660156 0.734375 10.445312 C 0.734375 10.015625 1.152344 9.585938 1.570312 9.585938 C 1.710938 9.585938 1.851562 9.621094 1.992188 9.691406 C 2.128906 9.765625 2.234375 9.835938 2.304688 9.90625 C 2.933594 10.660156 3.667969 11.308594 4.820312 11.308594 C 6.285156 11.308594 7.332031 10.339844 7.332031 8.9375 C 7.332031 7.539062 6.390625 6.785156 4.609375 6.785156 L 2.304688 6.785156 C 2.164062 6.785156 2.058594 6.710938 1.992188 6.570312 C 1.851562 6.496094 1.78125 6.355469 1.78125 6.136719 L 1.78125 1.507812 C 1.78125 1.292969 1.886719 1.078125 2.09375 0.863281 C 2.304688 0.644531 2.550781 0.539062 2.828125 0.539062 L 8.484375 0.539062 C 9.007812 0.539062 9.324219 0.96875 9.324219 1.398438 C 9.324219 1.9375 8.90625 2.371094 8.484375 2.371094 L 3.667969 2.371094 L 3.667969 5.0625 L 5.238281 5.0625 C 7.4375 5.0625 9.324219 6.355469 9.324219 8.9375 Z M 9.324219 8.9375 "/>
</g>
</svg>
