<svg version="1.2" xmlns="http://www.w3.org/2000/svg" viewBox="0 0 32 32" width="32" height="32">
	<title>Vector-svg</title>
	<style>
		.s0 { fill: #ffffff } 
	</style>
	<path id="Layer" class="s0" d="m16 30.9c-4 0-7.8-1.5-10.6-4.3-2.8-2.8-4.4-6.6-4.4-10.5 0-2.9 0.9-5.8 2.5-8.2 1.6-2.5 3.9-4.4 6.6-5.5q0.2-0.1 0.3-0.1 0.2 0 0.3 0.1 0.2 0 0.3 0.2 0.1 0.1 0.2 0.2 0.1 0.3 0 0.6-0.1 0.3-0.4 0.4c-2.5 1.1-4.5 2.8-6 4.9-1.4 2.2-2.2 4.8-2.2 7.4 0 7.3 6 13.3 13.4 13.3 7.4 0 13.4-6 13.4-13.3 0-2.6-0.8-5.2-2.2-7.4-1.5-2.1-3.5-3.8-6-4.9q-0.3-0.1-0.4-0.4-0.1-0.3 0-0.6 0.1-0.1 0.2-0.2 0.1-0.2 0.3-0.2 0.1-0.1 0.3-0.1 0.1 0 0.3 0.1c2.7 1.1 5 3 6.6 5.5 1.6 2.4 2.5 5.3 2.5 8.2 0 3.9-1.6 7.7-4.4 10.5-2.8 2.8-6.6 4.3-10.6 4.3z"/>
	<circle id="Layer" class="s0" cx="16" cy="2" r="1"/>
</svg>