<svg width="18" height="18" viewBox="0 0 18 18" fill="none" xmlns="http://www.w3.org/2000/svg">
<path fill-rule="evenodd" clip-rule="evenodd" d="M8.90816 17.25C8.66101 17.25 8.46094 17.0502 8.46094 16.8034V1.19658C8.46094 0.949786 8.66101 0.75 8.90816 0.75C8.93284 0.75 8.95705 0.751993 8.98064 0.755825C8.99093 0.755119 9.00132 0.754761 9.01179 0.754761C9.05583 0.754761 9.09975 0.755923 9.14353 0.75824C13.635 0.830912 17.2547 4.4936 17.25 8.99539C17.2476 12.3001 15.2681 15.2828 12.22 16.5708C11.2256 16.9901 10.1565 17.2107 9.07715 17.2171C9.02502 17.2383 8.96797 17.25 8.90816 17.25ZM9.35537 5.60695V1.6861C9.65924 1.7538 9.95892 1.91121 10.2499 2.15562C10.6689 2.50818 11.0525 3.02292 11.3844 3.68339C11.6303 4.17049 11.8379 4.71469 12.0043 5.30141C11.1653 5.4849 10.2771 5.58675 9.35537 5.60695ZM9.35537 8.55579V6.50023C10.354 6.47912 11.3198 6.36615 12.2144 6.17092C12.3666 6.92281 12.4568 7.72628 12.48 8.55579H9.35537ZM9.35537 9.44895V11.662C10.3397 11.6828 11.2921 11.7928 12.176 11.983C12.3493 11.1891 12.4523 10.3342 12.479 9.44895H9.35537ZM13.3738 9.44895C13.3464 10.4083 13.2341 11.3373 13.0438 12.2018C13.8145 12.4265 14.5162 12.7169 15.1197 13.066C15.8219 12.0194 16.2613 10.7824 16.3438 9.44895H13.3738ZM16.3453 8.55579C16.2715 7.3013 15.8767 6.09332 15.2078 5.04445C14.5945 5.41079 13.8752 5.71506 13.0817 5.94929C13.2511 6.77242 13.3507 7.65064 13.3747 8.55579H16.3453ZM9.35537 16.2858V12.5553C10.2577 12.5754 11.128 12.6747 11.9514 12.8501C11.7946 13.3681 11.6049 13.8511 11.3844 14.2885C11.0525 14.949 10.6712 15.4637 10.2499 15.8163C9.95892 16.0607 9.65924 16.2181 9.35537 16.2858ZM14.5707 13.7846C13.7277 14.7577 12.6328 15.5073 11.3872 15.932C11.6759 15.584 11.9435 15.1688 12.1847 14.6904C12.4334 14.1974 12.646 13.653 12.8199 13.0695C13.4724 13.2624 14.0654 13.505 14.5707 13.7846ZM14.6785 4.31724C14.1633 4.6162 13.5498 4.87369 12.8704 5.07781C12.6877 4.42829 12.4581 3.82409 12.1847 3.28147C11.9434 2.803 11.6757 2.38761 11.3869 2.03952C12.4398 2.39817 13.4072 2.99623 14.2066 3.79859C14.3728 3.96456 14.5302 4.13768 14.6785 4.31724ZM4.67375 16.8388C4.40777 16.8388 4.11591 16.7918 4.01469 16.7753L4.00292 16.773L3.98174 16.7683C3.06847 16.6014 2.247 15.767 1.66562 14.4178C1.06776 13.0264 0.75 11.1695 0.75 9.04475V8.97423V8.96953C0.75 6.84475 1.06541 4.98791 1.66562 3.59411C2.247 2.24496 3.06847 1.41056 3.98174 1.24368L4.00292 1.24133L4.01469 1.23898L4.03653 1.23556C4.15995 1.21613 4.46009 1.1689 4.72083 1.17552C6.29315 1.21077 7.12168 2.04518 7.12168 3.58236C7.12404 3.86206 7.09108 4.13941 7.02282 4.41206C6.89807 4.94325 6.6321 5.35458 6.23431 5.63663C5.83652 5.91868 5.32104 6.05971 4.69258 6.05971C4.55606 6.05971 4.41719 6.05265 4.28067 6.0362C4.24536 6.06441 4.09237 6.22424 3.9888 6.89881C3.88759 7.54753 3.87582 8.39133 3.87582 8.96718V9.0424C3.87582 9.6206 3.88759 10.4621 3.9888 11.1108C4.09472 11.7853 4.24536 11.9452 4.28067 11.9734C4.41719 11.9569 4.55371 11.9499 4.69258 11.9499C5.31869 11.9499 5.83887 12.0909 6.23431 12.373C6.62974 12.655 6.89807 13.0687 7.02282 13.5975C7.09108 13.8678 7.12404 14.1475 7.12168 14.4272C7.12168 15.9668 6.2908 16.7988 4.72083 16.8341L4.67375 16.8388ZM4.13709 15.8892L4.16298 15.8939C4.39365 15.9315 4.57489 15.948 4.70435 15.9456C5.25278 15.9339 5.65292 15.8022 5.89066 15.5554C6.12133 15.3157 6.23195 14.949 6.23195 14.4319C6.23431 14.2274 6.21077 14.0253 6.16134 13.8255C6.15899 13.8208 6.15899 13.8161 6.15899 13.8114C6.06248 13.3977 5.80592 12.8477 4.69964 12.8477C4.57489 12.8477 4.4525 12.8548 4.32775 12.8712L4.32772 12.8712C4.30419 12.8736 4.28066 12.8759 4.25713 12.8736C4.02646 12.8642 3.69929 12.7655 3.44979 12.3471C3.31327 12.1215 3.21205 11.8183 3.13909 11.4257C3.03317 10.8569 2.98609 10.1236 2.98609 9.04475V8.96953C2.98609 7.89069 3.03317 7.155 3.13909 6.58855C3.21205 6.19603 3.31327 5.89283 3.44979 5.66718C3.69929 5.24881 4.02646 5.15009 4.25713 5.14069C4.28067 5.14069 4.30421 5.14069 4.32775 5.14304C4.45014 5.15949 4.57489 5.16654 4.69964 5.16654C5.80827 5.16654 6.06483 4.61654 6.15899 4.20287C6.15899 4.20052 6.15957 4.19817 6.16016 4.19582C6.16075 4.19347 6.16134 4.19112 6.16134 4.18877C6.21077 3.99133 6.23431 3.78684 6.23195 3.58236C6.23195 3.06291 6.11897 2.69624 5.89066 2.45885C5.65057 2.21206 5.25043 2.08043 4.702 2.06633C4.57254 2.06398 4.38894 2.08043 4.16063 2.11804L4.13474 2.12274C3.53688 2.23791 2.93902 2.90073 2.48709 3.94667C2.10342 4.83983 1.64444 6.43577 1.64444 8.96483V9.04475C1.64444 11.5738 2.10342 13.1697 2.48709 14.0629C2.93666 15.1089 3.53688 15.7717 4.13238 15.8868L4.13709 15.8892Z" fill="#0B2739"/>
</svg>
