<svg width="16" height="16" viewBox="0 0 16 16" fill="none" xmlns="http://www.w3.org/2000/svg">
<path d="M14.5577 10.6183C14.3229 10.385 14.0596 10.1837 13.7743 10.0166C13.2303 9.68686 12.6685 9.56686 12.1047 9.66111C11.5409 9.75535 10.99 10.0616 10.4636 10.5754C10.3385 10.6954 10.2245 10.8217 10.117 10.9545C10.0249 11.0037 9.73302 10.9738 9.13835 10.5754C8.44945 10.1129 7.63544 9.3442 7.0826 8.80445L7.01672 8.74016C6.46388 8.20059 5.67392 7.40614 5.20221 6.73378C4.79404 6.15129 4.76334 5.86872 4.81378 5.77868C4.94984 5.67374 5.07925 5.56022 5.20221 5.44039C5.72885 4.9264 6.0426 4.38894 6.13899 3.83869C6.23538 3.28843 6.11261 2.74011 5.7748 2.20912C5.60374 1.92865 5.39516 1.67166 5.15823 1.44462C4.52856 0.830074 3.87251 0.513166 3.20999 0.500202C2.52325 0.489516 1.8277 0.804322 1.1476 1.43814C0.908511 1.6608 0.680193 1.9714 0.603549 2.07406L0.594754 2.08684L0.581651 2.10611C-0.0415556 2.98659 -0.026119 4.35057 0.623293 5.94808C1.30573 7.61618 2.6331 9.44283 4.46287 11.2287L4.46718 11.2329L4.52641 11.2886L4.53072 11.2928C6.36049 13.0786 8.23208 14.3743 9.94123 15.0401C10.7771 15.3656 11.5538 15.5284 12.2318 15.5284C12.8769 15.5284 13.4364 15.3807 13.8795 15.0873C13.8862 15.0808 13.8926 15.0766 13.8993 15.0722L13.9124 15.0636C14.0177 14.9886 14.3358 14.766 14.5639 14.5326C15.2155 13.8689 15.5381 13.19 15.525 12.5198C15.5122 11.8711 15.1873 11.233 14.5577 10.6183ZM13.9258 13.9396C13.8117 14.0552 13.634 14.1987 13.397 14.3657L13.3707 14.3828C12.7256 14.8112 11.5935 14.7619 10.264 14.2458C8.66448 13.6227 6.8961 12.3936 5.15177 10.6912L5.08159 10.6227C3.33726 8.92025 2.07792 7.19434 1.43946 5.63327C0.910665 4.33568 0.858073 3.2308 1.29694 2.60119L1.31668 2.57543C1.48774 2.34419 1.63475 2.17076 1.75321 2.05934C2.75372 1.12578 3.58747 1.12351 4.53754 2.05076C4.72403 2.22629 4.88414 2.42758 5.01805 2.64393L5.02469 2.65672C5.25067 3.01217 5.3318 3.35045 5.27257 3.69521C5.20903 4.06572 4.9764 4.44903 4.58151 4.83443C4.47184 4.94357 4.35553 5.0443 4.23042 5.13645C4.21283 5.14924 4.19524 5.1643 4.17998 5.18147C4.00893 5.36349 3.83105 5.69108 3.96495 6.20928C4.03962 6.50271 4.20852 6.83241 4.4783 7.21571C4.99166 7.94798 5.81895 8.78098 6.39585 9.3442L6.46172 9.40849C7.0388 9.97171 7.8923 10.779 8.64043 11.28C9.03317 11.5433 9.37097 11.706 9.67163 11.781C10.2026 11.9138 10.5382 11.7404 10.7247 11.5711C10.7402 11.5561 10.7554 11.5391 10.7709 11.5219C10.8653 11.3998 10.9683 11.2863 11.0803 11.1793C11.4752 10.7938 11.8679 10.5668 12.2476 10.5048C12.5987 10.447 12.9474 10.5262 13.3116 10.7467L13.3247 10.7532C13.5464 10.8839 13.7503 11.0402 13.9325 11.2222C14.8847 12.1494 14.8824 12.9632 13.9258 13.9396Z" fill="#0B2739"/>
</svg>
