<svg width="16" height="16" viewBox="0 0 16 16" fill="none" xmlns="http://www.w3.org/2000/svg">
<path d="M15.9988 7.88138C16.0745 12.2862 12.5236 15.9355 8.10022 15.9992C3.72478 16.0621 0.0861979 12.5381 0.00149256 8.15574C-0.0832128 3.7404 3.44818 0.0769322 7.8626 0.00121909C12.2785 -0.0752436 15.9224 3.45479 15.9988 7.88138ZM8.01702 1.19914C4.25025 1.19914 1.19187 4.2554 1.20011 8.01106C1.20836 11.7547 4.2555 14.7968 8.00278 14.8005C11.7396 14.8043 14.7852 11.7607 14.8009 8.00732C14.8159 4.27863 11.7478 1.19914 8.01777 1.19914H8.01702Z" fill="#0B2739"/>
<path d="M7.39695 9.19147C7.39695 8.56778 7.3947 7.94408 7.39695 7.32113C7.39845 6.8871 7.62933 6.60748 7.98539 6.60073C8.34295 6.59324 8.59332 6.8691 8.59482 7.29939C8.59932 8.57152 8.59857 9.84365 8.59332 11.115C8.59182 11.5228 8.3512 11.7905 8.00563 11.7972C7.64507 11.8047 7.4022 11.5333 7.3977 11.0993C7.3917 10.4636 7.3962 9.82716 7.39545 9.19147H7.39695Z" fill="#0B2739"/>
<path d="M8.00773 4.00885C8.46124 4.0141 8.81581 4.38067 8.80006 4.8267C8.78432 5.25849 8.42751 5.60182 7.99499 5.60032C7.55647 5.59882 7.18466 5.21351 7.19966 4.77647C7.21465 4.34768 7.57596 4.0036 8.00773 4.00885Z" fill="#0B2739"/>
</svg>
