<svg width="18" height="18" viewBox="0 0 18 18" fill="none" xmlns="http://www.w3.org/2000/svg">
<path d="M8.99882 17.25C8.54867 17.25 8.26586 16.8871 8.17394 16.7693C8.01132 16.5596 7.86756 16.3003 7.73086 16.0506C7.61538 15.8408 7.40562 15.4591 7.28778 15.3719C7.13694 15.3837 6.74807 15.6193 6.5336 15.7489C5.96797 16.0906 5.38348 16.4441 4.87205 16.1472C4.35356 15.8479 4.3677 15.1598 4.38184 14.4929C4.38655 14.2479 4.39598 13.7978 4.3347 13.6635C4.20036 13.6022 3.75257 13.6116 3.50511 13.6163C2.84049 13.6305 2.1523 13.6446 1.85063 13.1262C1.55838 12.6148 1.91191 12.0304 2.25129 11.4649C2.38091 11.2504 2.61659 10.8593 2.62837 10.7108C2.54117 10.593 2.15937 10.3832 1.94961 10.2678C1.69979 10.1311 1.44054 9.98736 1.23079 9.82477C0.75 9.45009 0.75 9.11075 0.75 9C0.75 8.54991 1.11295 8.26714 1.23079 8.17524C1.44054 8.01264 1.69979 7.8689 1.94961 7.73222C2.15937 7.61675 2.54117 7.40703 2.62837 7.2892C2.61659 7.13839 2.38091 6.74957 2.25129 6.53513C1.90955 5.96958 1.55603 5.38518 1.85299 4.87382C2.1523 4.3554 2.84049 4.36954 3.50746 4.38368C3.75257 4.38839 4.20036 4.39781 4.3347 4.33655C4.39598 4.20223 4.38655 3.7545 4.38184 3.50707C4.3677 2.84255 4.35356 2.15446 4.87205 1.85283C5.38348 1.55591 5.96797 1.90938 6.5336 2.25107C6.74807 2.38068 7.1393 2.61632 7.28778 2.62811C7.40562 2.54092 7.61538 2.15917 7.73086 1.94944C7.86756 1.69966 8.01132 1.44045 8.17394 1.23072C8.54867 0.75 8.88805 0.75 8.99882 0.75C9.44897 0.75 9.73179 1.1129 9.8237 1.23072C9.98632 1.44045 10.1301 1.69966 10.2668 1.94944C10.3823 2.15917 10.592 2.54092 10.7099 2.62811C10.8607 2.61632 11.2496 2.38068 11.464 2.25107C12.0297 1.90938 12.6142 1.55591 13.1256 1.85283C13.6441 2.1521 13.6276 2.84019 13.6158 3.50707C13.6111 3.75214 13.6017 4.19987 13.6629 4.33419C13.7973 4.39546 14.2451 4.38603 14.4925 4.38132C15.1572 4.36718 15.8453 4.35304 16.147 4.87147C16.444 5.38282 16.0905 5.96722 15.7487 6.53278C15.6191 6.74721 15.3834 7.13839 15.3716 7.28685C15.4588 7.40467 15.8406 7.6144 16.0504 7.72986C16.3002 7.86654 16.5595 8.01028 16.7692 8.17288C17.25 8.54756 17.25 8.88689 17.25 8.99764C17.25 9.44773 16.8871 9.7305 16.7692 9.82241C16.5595 9.985 16.3002 10.1287 16.0504 10.2654C15.8406 10.3809 15.4588 10.5906 15.3716 10.7084C15.3834 10.8593 15.6191 11.2481 15.7487 11.4625C16.0905 12.0281 16.444 12.6125 16.147 13.1238C15.8477 13.6422 15.1595 13.6258 14.4925 13.614C14.2474 13.6093 13.7973 13.5998 13.6629 13.6611C13.6017 13.7954 13.6111 14.2431 13.6158 14.4906C13.6299 15.1551 13.6441 15.8432 13.1256 16.1448C12.6142 16.4417 12.0297 16.0883 11.464 15.7489C11.2496 15.6193 10.8583 15.3837 10.7099 15.3719C10.592 15.4591 10.3823 15.8408 10.2668 16.0506C10.1301 16.3003 9.98632 16.5596 9.8237 16.7693C9.44897 17.25 9.10959 17.25 8.99882 17.25ZM7.30428 14.427C7.38205 14.427 7.45983 14.4364 7.53524 14.4576C7.99954 14.5825 8.27057 15.075 8.55574 15.5958C8.66887 15.8008 8.8692 16.166 8.99646 16.2838C9.12609 16.166 9.32406 15.8008 9.43719 15.5958C9.72472 15.075 9.99339 14.5825 10.4577 14.4576C10.9361 14.3303 11.4499 14.6414 11.9472 14.9407C12.1357 15.0538 12.4657 15.2541 12.6354 15.3012C12.6802 15.1292 12.6731 14.7356 12.6684 14.5118C12.6566 13.9085 12.6424 13.3406 12.9889 12.9942C13.3353 12.6478 13.9033 12.662 14.5067 12.6737C14.7306 12.6784 15.1242 12.6879 15.2962 12.6407C15.2491 12.4711 15.0487 12.1412 14.9356 11.9527C14.6339 11.4554 14.3252 10.9417 14.4525 10.4634C14.5774 9.99914 15.07 9.72815 15.5908 9.44302C15.7959 9.32991 16.1612 9.12961 16.279 9.00236C16.1612 8.87275 15.7959 8.67481 15.5908 8.5617C15.07 8.27421 14.5774 8.00557 14.4525 7.54135C14.3252 7.06298 14.6363 6.54927 14.9356 6.05206C15.0487 5.86354 15.2491 5.53363 15.2962 5.36397C15.1242 5.31919 14.7306 5.32626 14.5067 5.33098C13.9033 5.34276 13.3353 5.3569 12.9889 5.0105C12.6424 4.6641 12.6566 4.09619 12.6684 3.49293C12.6731 3.26907 12.6825 2.87554 12.6354 2.70351C12.4657 2.75064 12.1357 2.95094 11.9472 3.06405C11.4499 3.36568 10.9361 3.67438 10.4577 3.54713C9.99339 3.42224 9.72236 2.92973 9.43719 2.40895C9.32406 2.20394 9.12373 1.83869 8.99646 1.72087C8.86684 1.83869 8.66887 2.20394 8.55574 2.40895C8.26821 2.92973 7.99954 3.42224 7.53524 3.54713C7.05681 3.67438 6.54303 3.36332 6.04574 3.06405C5.8572 2.95094 5.52725 2.75064 5.35756 2.70351C5.31278 2.87554 5.31985 3.26907 5.32456 3.49293C5.33635 4.09619 5.35049 4.6641 5.00404 5.0105C4.65758 5.3569 4.08959 5.34276 3.48625 5.33098C3.26236 5.32626 2.86877 5.31684 2.69672 5.36397C2.74386 5.53363 2.94419 5.86354 3.05731 6.05206C3.35898 6.54927 3.66773 7.06298 3.54046 7.54135C3.41555 8.00557 2.92298 8.27656 2.40212 8.5617C2.19708 8.67481 1.83413 8.87275 1.71393 9.00236C1.83177 9.13196 2.19708 9.32991 2.40212 9.44302C2.92298 9.73051 3.41555 9.99914 3.54046 10.4634C3.66773 10.9417 3.35663 11.4554 3.05731 11.9527C2.94419 12.1412 2.74386 12.4711 2.69672 12.6407C2.86877 12.6855 3.26236 12.6784 3.48625 12.6737C4.08959 12.662 4.65758 12.6478 5.00404 12.9942C5.35049 13.3406 5.33635 13.9085 5.32456 14.5118C5.31985 14.7356 5.31042 15.1292 5.35756 15.3012C5.52725 15.2541 5.8572 15.0538 6.04574 14.9407C6.46525 14.6862 6.89419 14.427 7.30428 14.427Z" fill="#0B2739"/>
<path d="M8.25603 9.60665H9.51342C9.70466 9.60665 9.88808 9.6839 10.0233 9.82138C10.1585 9.95887 10.2345 10.1454 10.2345 10.3398C10.2345 10.5342 10.1585 10.7206 10.0233 10.8581C9.88808 10.9956 9.70466 11.0729 9.51342 11.0729H7.27027C7.1718 11.0729 7.07737 11.1126 7.00774 11.1834C6.93811 11.2542 6.89899 11.3503 6.89899 11.4504C6.89899 11.5505 6.93811 11.6465 7.00774 11.7173C7.07737 11.7881 7.1718 11.8279 7.27027 11.8279H8.53882V12.457C8.53882 12.5571 8.57793 12.6531 8.64756 12.7239C8.71719 12.7947 8.81162 12.8345 8.91009 12.8345C9.00856 12.8345 9.10301 12.7947 9.17264 12.7239C9.24227 12.6531 9.28137 12.5571 9.28137 12.457V11.8279H9.51157C9.89979 11.8279 10.2721 11.6711 10.5466 11.392C10.8211 11.1129 10.9754 10.7343 10.9754 10.3396C10.9754 9.94492 10.8211 9.56633 10.5466 9.28723C10.2721 9.00813 9.89979 8.85131 9.51157 8.85131H8.25603C8.0648 8.85131 7.88138 8.77414 7.74616 8.63665C7.61093 8.49917 7.53497 8.31268 7.53497 8.11825C7.53497 7.92381 7.61093 7.73733 7.74616 7.59984C7.88138 7.46236 8.0648 7.38511 8.25603 7.38511H10.1189C10.2174 7.38511 10.3118 7.34531 10.3815 7.27452C10.4511 7.20372 10.4902 7.10775 10.4902 7.00763C10.4902 6.90751 10.4511 6.81147 10.3815 6.74067C10.3118 6.66988 10.2174 6.63016 10.1189 6.63016H9.28355V5.77544C9.28355 5.67532 9.24442 5.57927 9.17479 5.50848C9.10516 5.43769 9.01073 5.39789 8.91226 5.39789C8.81379 5.39789 8.71936 5.43769 8.64973 5.50848C8.5801 5.57927 8.54098 5.67532 8.54098 5.77544V6.63016H8.25603C7.86782 6.63016 7.49549 6.7869 7.22098 7.066C6.94647 7.3451 6.79225 7.72369 6.79225 8.1184C6.79225 8.51311 6.94647 8.89162 7.22098 9.17073C7.49549 9.44983 7.86782 9.60665 8.25603 9.60665Z" fill="#0B2739"/>
</svg>
