<svg width="18" height="12" viewBox="0 0 18 12" fill="none" xmlns="http://www.w3.org/2000/svg">
<path fill-rule="evenodd" clip-rule="evenodd" d="M16.125 10.7634C15.9958 10.92 15.7305 10.9562 15.5333 10.961C14.2653 10.9827 2.32071 10.9586 2.18922 10.961C2.0953 10.949 2.00842 10.908 1.94033 10.8429C1.79005 10.6935 1.75953 10.4162 1.75953 10.2113V2.71434L7.48645 6.4098C7.52168 6.43632 8.09226 6.85094 8.87886 6.85094C9.27333 6.85094 9.72416 6.74488 10.1891 6.43391L16.2377 2.69265L16.2283 10.2113L16.2353 10.2933C16.233 10.2957 16.2729 10.5874 16.125 10.7634ZM2.19861 1.02933L15.8315 1.03174C15.8432 1.03174 16.1179 1.04138 16.2095 1.50663L9.64902 5.56609C8.83894 6.10848 8.11104 5.59984 8.05703 5.55886L1.77831 1.50663C1.79944 1.36681 1.84406 1.21254 1.92859 1.12093C1.97085 1.07995 2.03895 1.02933 2.19861 1.02933ZM17.238 10.1776L17.2497 1.76456C17.2121 0.291683 16.2236 -0.0216955 15.8197 0.00241057L2.20096 0C1.79709 0 1.44723 0.144636 1.19364 0.419446C0.714637 0.935315 0.74751 1.71876 0.752206 1.77662V10.2089C0.752206 10.7947 0.914223 11.2551 1.23591 11.5757C1.64682 11.9855 2.16104 12 2.20096 11.9879C2.52499 11.9879 7.66491 12 11.4993 12C13.4834 12 15.1177 11.9976 15.5521 11.9879C16.2987 11.9759 16.7026 11.6673 16.9092 11.4142C17.2896 10.9417 17.2614 10.3632 17.238 10.1776Z" fill="#0B2739"/>
</svg>
