<svg width="18" height="12" viewBox="0 0 18 12" fill="none" xmlns="http://www.w3.org/2000/svg">
<path fill-rule="evenodd" clip-rule="evenodd" d="M15.9203 10.6886C16.1248 9.91775 16.2282 9.04348 16.2282 8.08697C16.2282 3.37959 13.7934 0.99183 8.99437 0.99183C4.19534 0.99183 1.76292 3.37724 1.76292 8.08697C1.76292 9.04583 1.86633 9.9201 2.06844 10.6886H15.9203ZM8.99202 6.10352e-05C14.388 6.10352e-05 17.2388 2.79675 17.2388 8.08697C17.2388 9.27615 17.0907 10.3549 16.7946 11.2949C16.7875 11.3208 16.7758 11.3443 16.764 11.3678L16.7476 11.403C16.6606 11.5746 16.4867 11.6804 16.294 11.6804H1.68537C1.4668 11.6827 1.26939 11.5417 1.20123 11.3325C0.902761 10.3831 0.75 9.2926 0.75 8.08697C0.75 2.79675 3.60075 6.10352e-05 8.99202 6.10352e-05ZM8.99437 7.92011C9.28344 7.92011 9.54196 8.03526 9.73233 8.21858L15.0789 6.68157C15.3492 6.60402 15.6289 6.75443 15.7064 7.01764C15.7816 7.27851 15.6312 7.55348 15.3704 7.63104C15.368 7.63104 15.3657 7.63339 15.3633 7.63339L10.0237 9.16804C9.91564 9.64748 9.48791 9.9859 8.99673 9.98355C8.41623 9.98355 7.9462 9.52292 7.9462 8.95183C7.94385 8.38309 8.41388 7.92246 8.99437 7.92011ZM8.98262 3.73212C8.7053 3.73447 8.47969 3.51355 8.47734 3.23623V2.56644C8.47734 2.29382 8.70295 2.07055 8.98262 2.07055C9.26229 2.07055 9.48791 2.29382 9.48791 2.56644V3.23623C9.48791 3.5112 9.26229 3.73212 8.98262 3.73212ZM5.14246 3.56056L5.62659 4.03529C5.8193 4.2233 5.824 4.53117 5.63834 4.72624L5.62659 4.73799C5.53023 4.83199 5.40332 4.8837 5.26936 4.8837C5.13541 4.8837 5.0085 4.83199 4.91214 4.73799L4.42566 4.26091C4.23294 4.07289 4.22824 3.76267 4.41626 3.56996L4.42566 3.56056C4.62542 3.36784 4.94269 3.36784 5.14246 3.56056ZM3.93447 7.0482C4.21414 7.0482 4.43976 7.26911 4.43976 7.54408C4.43976 7.8167 4.21414 8.03997 3.93447 8.03997H3.25057C2.97561 8.04232 2.74764 7.8214 2.74529 7.54408C2.74529 7.26911 2.9709 7.0482 3.25057 7.0482H3.93447ZM12.6912 4.88135C12.5572 4.88135 12.428 4.82964 12.334 4.73564C12.1412 4.54762 12.1365 4.23975 12.3222 4.04469L12.334 4.03294L12.8181 3.55821C13.0179 3.36549 13.3351 3.36549 13.5325 3.55821C13.7253 3.74622 13.73 4.05644 13.5419 4.24915L13.5325 4.25855L13.0484 4.73329C12.9544 4.82964 12.8251 4.88135 12.6912 4.88135Z" fill="#313235"/>
</svg>
