<svg width="18" height="18" viewBox="0 0 18 18" fill="none" xmlns="http://www.w3.org/2000/svg">
<mask id="mask0_2340_9891" style="mask-type:alpha" maskUnits="userSpaceOnUse" x="0" y="0" width="18" height="18">
<rect width="18" height="18" fill="#C4C4C4"/>
</mask>
<g mask="url(#mask0_2340_9891)">
<path fill-rule="evenodd" clip-rule="evenodd" d="M2.93887 15.2166C4.33777 16.5659 6.37617 17.25 8.99765 17.25C11.6191 17.25 13.6575 16.5659 15.0588 15.2166C16.5118 13.8155 17.25 11.7257 17.25 9.00117C17.25 6.27664 16.5141 4.18446 15.0588 2.78341C13.6575 1.43407 11.6191 0.75 8.99765 0.75C6.37853 0.75 4.33777 1.43642 2.93887 2.78576C1.48589 4.18681 0.75 6.27899 0.75 9.00353C0.75 11.7281 1.48589 13.8179 2.93887 15.2166ZM1.66223 9.00353C1.66223 4.13275 4.13088 1.66445 8.99765 1.66445C13.8668 1.66445 16.3378 4.1351 16.3378 9.00353C16.3378 13.8696 13.8668 16.3379 8.99765 16.3379C4.13088 16.3379 1.66223 13.8696 1.66223 9.00353ZM7.46006 12.4802C7.54235 12.5837 7.66695 12.6424 7.79861 12.6424H7.80802C7.94203 12.6401 8.06664 12.5766 8.14658 12.4685L12.9851 5.98977C13.1286 5.79936 13.0886 5.52902 12.8981 5.38562C12.7077 5.24223 12.4373 5.28219 12.2939 5.4726L7.78686 11.5047L5.92009 9.1586C5.77197 8.97289 5.49924 8.94233 5.3135 9.09043C5.12777 9.23852 5.0972 9.51121 5.24532 9.69692L7.46006 12.4802Z" fill="#0B2739"/>
</g>
</svg>
