<svg width="18" height="18" viewBox="0 0 18 18" fill="none" xmlns="http://www.w3.org/2000/svg">
<path d="M14.367 13.5028L3.63539 13.4957C2.69629 13.4957 1.96848 13.2326 1.47311 12.7112C0.991818 12.2112 0.75 11.4955 0.75 10.5855V5.51152C0.75 3.64879 1.77362 2.625 3.63304 2.625L14.367 2.63211C16.2264 2.63211 17.25 3.65827 17.25 5.51863V10.5926C17.25 11.5026 17.0082 12.2183 16.5292 12.7184C16.0315 13.2397 15.3037 13.5028 14.367 13.5028ZM3.63304 3.57296C2.95689 3.57296 2.45447 3.73648 2.14222 4.05878C1.8417 4.36924 1.6891 4.85743 1.6891 5.51152V10.5855C1.6891 11.9244 2.30656 12.5477 3.63304 12.5477L14.3646 12.5548C15.6911 12.5548 16.3086 11.9316 16.3086 10.5926V5.51863C16.3086 4.86454 16.1559 4.37635 15.8531 4.06589C15.5408 3.74359 15.0408 3.58006 14.3623 3.58006L3.63304 3.57296ZM11.0566 15.375L6.93633 15.3679C6.67807 15.3679 6.46678 15.1546 6.46678 14.8939C6.46678 14.6332 6.67807 14.4199 6.93633 14.4199L11.0566 14.427C11.3149 14.427 11.5262 14.6403 11.5262 14.901C11.5262 15.1617 11.3149 15.375 11.0566 15.375Z" fill="#0B2739"/>
</svg>
