<svg width="14" height="12" viewBox="0 0 14 12" fill="none" xmlns="http://www.w3.org/2000/svg">
<path d="M4.70689 6.46134C4.70689 5.1861 5.7329 4.15231 6.99856 4.15231C8.26421 4.15231 9.29022 5.1861 9.29022 6.46134C9.29022 7.73658 8.26421 8.77036 6.99856 8.77036C5.7329 8.77036 4.70689 7.73658 4.70689 6.46134Z" fill="#3C5261"/>
<path fill-rule="evenodd" clip-rule="evenodd" d="M5.07044 0.593268C5.15639 0.506662 5.27297 0.458008 5.39453 0.458008H8.60287C8.72442 0.458008 8.841 0.506662 8.92696 0.593268L10.626 2.30523H12.0404C12.8 2.30523 13.4154 2.9253 13.4154 3.69065V10.1559C13.4154 10.9213 12.8 11.5413 12.0404 11.5413H1.95703C1.19744 11.5413 0.582031 10.9213 0.582031 10.1559V3.69065C0.582031 2.9253 1.19744 2.30523 1.95703 2.30523H3.37135L5.07044 0.593268ZM6.99856 3.2287C5.22664 3.2287 3.79022 4.676 3.79022 6.46134C3.79022 8.24667 5.22664 9.69398 6.99856 9.69398C8.77047 9.69398 10.2069 8.24667 10.2069 6.46134C10.2069 4.676 8.77047 3.2287 6.99856 3.2287Z" fill="#3C5261"/>
</svg>
