<svg width="14" height="14" viewBox="0 0 14 14" fill="none" xmlns="http://www.w3.org/2000/svg">
<path d="M9.61987 5.50381H8.59674V6.65293H9.61914C9.77147 6.65274 9.91739 6.59203 10.0251 6.48433C10.1328 6.37662 10.1933 6.23069 10.1937 6.07837C10.1935 5.92623 10.133 5.7803 10.0255 5.6726C9.91794 5.56489 9.77201 5.50418 9.61987 5.50381Z" fill="#3C5261"/>
<path d="M8.5966 7.32239H9.61899C9.77149 7.32275 9.91742 7.38328 10.0249 7.49099C10.1326 7.59851 10.1934 7.74462 10.1935 7.89694C10.1934 8.04909 10.1328 8.19501 10.0253 8.30272C9.9176 8.41042 9.77186 8.47113 9.61972 8.4715H8.5966V7.32239Z" fill="#3C5261"/>
<path fill-rule="evenodd" clip-rule="evenodd" d="M11.7166 2.15929C10.6304 1.11331 9.04494 0.583008 6.9987 0.583008C4.95246 0.583008 3.36521 1.11331 2.28083 2.15929C1.15256 3.24549 0.582031 4.8748 0.582031 6.99967C0.582031 9.12637 1.15439 10.7539 2.28083 11.8401C3.36704 12.886 4.95429 13.4163 6.9987 13.4163C9.04311 13.4163 10.6304 12.886 11.7166 11.8401C12.843 10.7539 13.4154 9.12637 13.4154 6.99967C13.4154 4.87298 12.843 3.24549 11.7166 2.15929ZM6.77908 8.50903C6.37952 8.90858 5.83788 9.13332 5.27302 9.13424C4.71181 9.12765 4.17584 8.90017 3.78122 8.50116C3.38642 8.10179 3.16497 7.56308 3.16497 7.0015C3.16497 6.43993 3.38642 5.90103 3.78122 5.50184C4.17602 5.10265 4.71236 4.87499 5.27393 4.86877L6.28699 4.86493C6.37166 4.86493 6.45303 4.89858 6.51283 4.95856C6.57263 5.01854 6.60646 5.09973 6.60646 5.18439C6.60646 5.26906 6.57281 5.35043 6.51283 5.41023C6.45285 5.47021 6.37166 5.50385 6.28699 5.50385L5.27302 5.50769C4.99159 5.50769 4.71583 5.58742 4.47775 5.73737C4.23966 5.88732 4.04875 6.10163 3.92715 6.35563C3.80554 6.60963 3.75836 6.89252 3.79055 7.17211C3.82291 7.45171 3.93373 7.7165 4.11001 7.93575C4.28629 8.155 4.52109 8.32013 4.78733 8.41174C5.0534 8.50336 5.34013 8.51799 5.61406 8.45362C5.88799 8.38925 6.13833 8.249 6.336 8.04858C6.53368 7.84816 6.67064 7.59599 6.73117 7.32115H5.27156C5.18689 7.32115 5.10552 7.2875 5.04554 7.22752C4.98556 7.16754 4.95191 7.08635 4.95191 7.0015C4.95191 6.91666 4.98556 6.83546 5.04554 6.77548C5.10552 6.71551 5.18671 6.68186 5.27156 6.68186H7.08501C7.16968 6.68186 7.25105 6.71569 7.31085 6.77567C7.37064 6.83565 7.40429 6.91684 7.40429 7.00169C7.40392 7.5671 7.179 8.10929 6.77908 8.50903ZM10.8324 7.89698C10.8324 8.36091 10.7041 8.52713 10.4766 8.75461C10.2491 8.98209 9.9406 9.1101 9.61894 9.11046H8.35225C8.33945 9.10882 8.32702 9.10626 8.31458 9.10297C8.30215 9.10626 8.28953 9.10882 8.27691 9.11046C8.19225 9.11046 8.11087 9.07682 8.05089 9.01684C7.99091 8.95686 7.95727 8.87567 7.95708 8.791V5.18439C7.95708 5.09954 7.99091 5.01835 8.05089 4.95856C8.11087 4.89858 8.19206 4.86493 8.27691 4.86493C8.28971 4.86658 8.30233 4.86914 8.31458 4.87243C8.32702 4.86914 8.33963 4.86658 8.35225 4.86493H9.61894C9.9406 4.8653 10.2491 4.9933 10.4766 5.22078C10.7041 5.44826 10.8324 5.61449 10.8324 6.07841C10.8324 6.54233 10.3195 6.98779 10.3195 6.98779C10.3195 6.98779 10.8324 7.43324 10.8324 7.89698Z" fill="#3C5261"/>
</svg>
