<svg width="10" height="14" viewBox="0 0 10 14" fill="none" xmlns="http://www.w3.org/2000/svg">
<path fill-rule="evenodd" clip-rule="evenodd" d="M8.84515 1.12534C8.48321 0.760133 7.94963 0.583008 7.21082 0.583008H2.78918C1.35261 0.583008 0.625 1.30429 0.625 2.72859V11.2708C0.625 12.7151 1.33209 13.4163 2.78918 13.4163H7.21082C8.66791 13.4163 9.375 12.7151 9.375 11.2708V2.72859C9.375 2.00731 9.20149 1.48324 8.84515 1.12534ZM7.56416 3.58151C7.48309 3.58151 7.40533 3.54932 7.34798 3.49202C7.29064 3.43472 7.25838 3.357 7.2583 3.27593V2.36082H6.34316C6.26212 2.36082 6.18443 2.32863 6.12712 2.27132C6.06982 2.21402 6.03764 2.13629 6.03764 2.05525C6.03764 1.97421 6.06982 1.89648 6.12712 1.83917C6.18443 1.78187 6.26212 1.74967 6.34316 1.74967H7.56416C7.6452 1.74967 7.72289 1.78187 7.7802 1.83917C7.8375 1.89648 7.86968 1.97421 7.86968 2.05525V3.27593C7.86968 3.31606 7.8618 3.3558 7.84645 3.39288C7.83109 3.42995 7.80857 3.46363 7.7802 3.492C7.75182 3.52038 7.71813 3.5429 7.68105 3.55825C7.64398 3.57361 7.60429 3.58151 7.56416 3.58151ZM2.38892 12.0979H3.60992C3.69096 12.0979 3.76865 12.0657 3.82596 12.0084C3.88326 11.9511 3.91544 11.8733 3.91544 11.7923C3.91544 11.7112 3.88326 11.6335 3.82596 11.5762C3.76865 11.5189 3.69096 11.4867 3.60992 11.4867H2.69451V10.5136C2.69451 10.4325 2.66234 10.3548 2.60503 10.2975C2.54772 10.2402 2.46997 10.208 2.38892 10.208C2.30788 10.208 2.23019 10.2402 2.17288 10.2975C2.11558 10.3548 2.08333 10.4325 2.08333 10.5136V11.7923C2.08333 11.8733 2.11558 11.9511 2.17288 12.0084C2.23019 12.0657 2.30788 12.0979 2.38892 12.0979Z" fill="#3C5261"/>
</svg>
